<svg xmlns="http://www.w3.org/2000/svg" version="1.0" viewBox="0 0 1050 1050">
  <path d="M485 1c-82.9 7.1-161 31.8-229 72.8-39.4 23.7-67.9 46-101.6 79.7-21.4 21.3-34.6 36.4-50.7 58C47.2 287.2 13 374.4 2.4 470c-2.2 19.8-3 71.3-1.5 92.2 3.3 45 11.4 85.4 25.6 128.3 62.4 188.5 227 326.5 423 354.4 25.3 3.6 33.7 4.3 65.2 4.8 65.1 1.2 116.2-6.5 175.8-26.2 188.5-62.4 326.5-227 354.4-423 3.6-25.3 4.3-33.7 4.8-65 .9-51.5-3.2-89.3-14.7-136.1-19.5-79-54.7-148.4-107.9-212.4-12.8-15.5-48.7-51.3-64.1-64C779.5 53.9 686.6 14.4 580 2.4 563.1.5 501.7-.4 485 1zm75 141.1c116 10 222.6 74.4 287.3 173.5 73 111.8 82.4 254.3 24.8 374.9-74.3 155.4-242 242.2-412.6 213.4-143.9-24.3-263.4-131.5-304.1-272.8-22.9-79.7-19.2-165.9 10.3-243.1C208.8 275.3 303 188.7 418.9 155.4c45.4-13 92.7-17.5 141.1-13.3z"/>
  <path d="M489.4 211.5c-71.9 8.6-136.4 39.6-186.9 90-48.6 48.4-78.9 108.5-89.7 178-2.6 16.8-3.6 57.1-1.8 75.4 7 73.1 38.7 140.7 90.5 192.6 48.4 48.6 108.5 78.9 178 89.7 16.8 2.6 57.1 3.6 75.4 1.8 73.1-7 140.7-38.7 192.6-90.5 48.6-48.4 78.9-108.5 89.7-178 2.6-16.8 3.6-57.1 1.8-75.4-7-73.1-38.7-140.7-90.5-192.6-48.4-48.6-108.3-78.8-178-89.7-16.7-2.6-63.9-3.4-81.1-1.3zm49.7 69.5c61.8 3.9 115 27.9 158.5 71.4 62.4 62.4 86.1 150.6 63.5 236.2C745.3 648.5 704.5 702.2 650 735c-55.8 33.6-124.2 43.1-188.6 26.1C401.5 745.3 347.8 704.5 315 650c-33.6-55.8-43.1-124.2-26.1-188.6C304.7 401.5 345.5 347.8 400 315c32-19.3 71.2-31.6 108.5-33.9 6.6-.5 12.7-.9 13.5-.9.8-.1 8.5.3 17.1.8z"/>
  <path d="M495.5 352c-14.7 2.7-23.9 5.3-37 10.7-53.9 21.9-93.7 70-105.6 127.8-3 14.7-3.7 45.2-1.4 60 9.2 59.1 44.5 107 97.5 132.4 24.9 11.9 42.2 16 71 16.8 21.4.6 32.6-.6 50.9-5.3 62.8-16.3 112.7-69.7 126.2-134.9 3-14.7 3.7-45.2 1.4-60-9.2-59.1-44.5-107-97.5-132.4-25.8-12.3-42.3-16.1-73-16.7-18.3-.3-23.1-.1-32.5 1.6zm38.7 69c24.1 2.3 44.7 11.6 62.2 28 36.9 34.7 43.7 91.4 15.9 133.3-32 48.1-97.1 61.6-144.6 30-48.1-32-61.6-97.1-30-144.6 17.2-25.8 46.4-43.7 76.3-46.6 4.7-.5 8.7-.9 9-1 .3 0 5.3.4 11.2.9z"/>
  <path d="M513.8 491.3c-9.8 3.7-15.8 9-20.9 18.7-2.1 3.9-2.4 5.9-2.4 15 0 10.1.1 10.8 3.4 16.8 3.6 6.7 8.5 11.4 16.1 15.3 3.9 2.1 5.9 2.4 15 2.4 10.1 0 10.8-.1 16.8-3.4 6.7-3.6 11.4-8.5 15.3-16.1 2.1-3.9 2.4-5.9 2.4-15 0-10.1-.1-10.8-3.4-16.8-3.7-6.7-8.6-11.4-16.1-15.3-5.6-2.8-20.3-3.7-26.2-1.6z"/>
</svg>
